<?xml version="1.0" encoding="UTF-8" standalone="no"?>
<!DOCTYPE svg PUBLIC "-//W3C//DTD SVG 20010904//EN" "http://www.w3.org/TR/2001/REC-SVG-20010904/DTD/svg10.dtd">
<svg version="1.0" xmlns="http://www.w3.org/2000/svg" width="456.000000pt" height="313.000000pt" viewBox="0 0 456.000000 313.000000" preserveAspectRatio="xMidYMid meet">
<metadata>
Created by potrace 1.11, written by Peter Selinger 2001-2013
</metadata>
<g transform="translate(0.000000,313.000000) scale(0.100000,-0.100000)" fill="#000" stroke="none">
<path d="M2015 3104 c-374 -67 -696 -248 -930 -522 l-75 -89 -118 -6 c-140 -6 -231 -30 -357 -92 -247 -122 -431 -349 -500 -620 -21 -81 -27 -255 -13 -362 36 -282 244 -565 512 -698 127 -62 226 -87 372 -94 l122 -6 74 -85 c160 -183 378 -333 618 -425 231 -89 539 -119 789 -76 364 62 685 241 922 515 l81 93 132 6 c158 7 252 29 379 92 239 117 424 339 499 600 19 69 23 103 23 240 0 137 -4 172 -23 239 -94 326 -330 567 -649 662 -72 22 -115 27 -235 31 l-146 5 -52 65 c-225 276 -599 481 -973 532 -108 15 -356 12 -452 -5z m-221 -648 c153 -30 273 -94 386 -207 l76 -76 92 88 c150 144 295 203 502 203 137 0 208 -16 330 -76 70 -35 102 -59 181 -137 78 -79 102 -111 136 -181 93 -191 106 -379 38 -573 -32 -94 -78 -168 -155 -250 -134 -143 -286 -217 -485 -234 -76 -6 -77 -6 -71 -32 4 -14 9 -64 12 -111 12 -167 -43 -309 -165 -431 -235 -235 -594 -237 -826 -4 -144 143 -203 345 -159 548 6 26 5 27 -34 27 -58 0 -177 25 -246 51 -157 59 -309 191 -383 335 -117 225 -117 463 0 688 52 101 171 225 272 284 155 90 327 120 499 88z m1999 -281 c217 -66 386 -250 432 -470 58 -275 -77 -560 -324 -683 -77 -39 -185 -71 -197 -60 -3 4 8 49 25 101 63 196 75 282 75 507 0 229 -12 308 -79 506 -19 58 -35 108 -35 110 0 9 58 3 103 -11z m-3002 -111 c-60 -180 -75 -279 -75 -499 0 -226 16 -324 80 -514 20 -56 34 -105 31 -107 -2 -2 -28 3 -58 12 -162 48 -308 170 -378 317 -92 194 -92 374 1 566 69 144 208 262 368 312 30 9 56 14 58 10 1 -5 -11 -48 -27 -97z"/>
</g>
</svg>
